<svg width="85" height="40" viewBox="0 0 85 40" fill="none" xmlns="http://www.w3.org/2000/svg">
<g id="Group 164">
<g id="Vector">
<path d="M56.6117 39.9699L56.622 40H70.7302L84.3887 0H72.6413L63.7042 28.8794L56.6117 6.10375V39.9699Z" fill="#080808"/>
<path d="M28.526 40H53.6487V31.0922H38.5711V28.3679C38.1388 29.5437 37.607 30.6794 36.9737 31.7727C34.9867 35.2685 32.1452 38.0153 28.526 40Z" fill="#080808"/>
<path d="M39.713 23.8865H51.8749V15.4326H39.6235C39.8757 16.8953 40 18.4096 40 19.9716C40 21.312 39.905 22.6178 39.713 23.8865Z" fill="#080808"/>
<path d="M38.5711 11.4489V8.9078H53.6487V0H28.5879C32.2115 1.91367 35.0534 4.62942 37.0379 8.1262C37.6434 9.19304 38.1538 10.3014 38.5711 11.4489Z" fill="#080808"/>
<path d="M15.9711 0C20.2072 0 23.909 0.851065 27.0765 2.55319C30.2822 4.21749 32.7437 6.56265 34.461 9.58865C36.1784 12.6147 37.037 16.0756 37.037 19.9716C37.037 23.8298 36.1593 27.2719 34.4038 30.2979C32.6865 33.3239 30.225 35.7069 27.0193 37.4468C23.8518 39.1489 20.1691 40 15.9711 40H0V0H15.9711ZM15.1125 30.1844C18.3945 30.1844 20.9705 29.2955 22.8405 27.5177C24.7104 25.74 25.6454 23.2246 25.6454 19.9716C25.6454 16.6809 24.7104 14.1466 22.8405 12.3688C20.9705 10.5532 18.3945 9.64539 15.1125 9.64539H11.2199V30.1844H15.1125Z" fill="#080808"/>
</g>
<circle id="Ellipse 10" cx="81.4258" cy="37.0371" r="2.96296" fill="#FFAC00"/>
</g>
</svg>
